#!OML:ASF E:\Mandelcareful walks\Project 1\Capture day 1\Session 1\Subject1.ASF
:FULLY-SPECIFIED
:DEGREES
737
root -11.5652 15.664 -9.57703 -1084.28 -58.6988 6.5508
lowerback 1.29301 -2.25514 -5.2125
upperback 1.65316 -3.05751 -3.01831
thorax 1.08245 -1.58553 -0.179368
lowerneck -17.0207 13.8846 8.43408
upperneck 32.962 22.5284 -13.3823
head 17.8432 8.35406 -2.54942
rclavicle 1.26228e-014 3.33958e-014
rhumerus -64.0383 28.7456 -88.4416
rradius 75.621
rwrist -17.5622
rhand 5.12588 -23.9013
rfingers 7.12502
rthumb 30.49 -51.3988
lclavicle 1.26228e-014 3.33958e-014
lhumerus -39.4923 -31.4934 94.6908
lradius 77.356
lwrist 23.4428
lhand -21.7433 -15.6094
lfingers 7.12502
lthumb 4.65661 14.3195
rfemur -32.3933 -14.6962 12.7113
rtibia 41.8749
rfoot -7.63264 -2.87566
rtoes -2.45399
lfemur 10.4982 0.837016 -22.0962
ltibia 62.1119
lfoot -11.2163 20.1032
ltoes 4.97109
738
root -12.0641 15.4972 -9.39871 -1083.9 -58.3288 3.51019
lowerback 4.45209 -1.91144 -2.82289
upperback 2.20114 -2.71869 -2.75612
thorax -0.235474 -1.38484 -1.12381
lowerneck -16.5895 14.1615 8.66852
upperneck 31.7179 23.1597 -14.6004
head 17.4752 8.59379 -2.93481
rclavicle 5.60573e-014 -3.10104e-014
rhumerus -61.5205 29.8976 -87.9477
rradius 74.4914
rwrist -15.5709
rhand 2.76735 -23.0542
rfingers 7.12502
rthumb 28.2382 -50.9464
lclavicle 5.60573e-014 -3.10104e-014
lhumerus -39.252 -28.5076 93.8389
lradius 72.2689
lwrist 22.0164
lhand -20.4231 -14.7528
lfingers 7.12502
lthumb 5.9313 15.1441
rfemur -29.6011 -14.4254 13.898
rtibia 45.3536
rfoot -11.8851 -3.40558
rtoes -2.65429
lfemur 8.41943 1.46202 -19.6969
ltibia 69.4152
lfoot -11.6836 18.2003
ltoes 5.06444
739
root -12.5439 15.3669 -9.21089 -1083.9 -58.0597 1.66024
lowerback 6.94306 -1.50474 -1.06261
upperback 2.84028 -2.16208 -2.44822
thorax -1.01745 -1.09866 -1.75563
lowerneck -17.3258 14.3139 8.33277
upperneck 30.9915 23.8242 -15.7489
head 17.5948 8.67792 -3.1342
rclavicle -3.72721e-014 -1.59028e-014
rhumerus -58.1575 30.7512 -86.5571
rradius 72.7543
rwrist -13.1162
rhand -0.125838 -22.3749
rfingers 7.12502
rthumb 25.4698 -50.6929
lclavicle -3.72721e-014 -1.59028e-014
lhumerus -38.7615 -25.453 93.0996
lradius 67.3036
lwrist 19.9249
lhand -23.0238 -10.6187
lfingers 7.12502
lthumb 3.42015 19.3336
rfemur -27.216 -14.9087 14.5196
rtibia 48.2885
rfoot -15.1126 -3.3899
rtoes -1.96104
lfemur 5.09465 2.30865 -18.2381
ltibia 75.8313
lfoot -12.5959 15.0323
ltoes -1.05197
740
root -13.029 15.2629 -9.02183 -1083.16 -57.206 0.0517854
lowerback 7.95024 -1.1354 0.0596471
upperback 3.08902 -1.5982 -1.96759
thorax -1.32153 -0.813287 -1.91741
lowerneck -16.8751 14.4006 8.33732
upperneck 30.0053 24.2648 -17.0108
head 17.3413 8.80751 -3.55227
rclavicle 1.15295e-014 -1.03368e-014
rhumerus -55.7978 31.0666 -85.1826
rradius 71.0438
rwrist -10.0824
rhand -3.67614 -22.145
rfingers 7.12502
rthumb 22.0649 -50.9061
lclavicle 1.15295e-014 -1.03368e-014
lhumerus -38.657 -22.2138 92.896
lradius 61.8478
lwrist 17.1352
lhand -24.3831 -6.25587
lfingers 7.12502
lthumb 2.10735 23.7135
rfemur -25.3059 -15.2394 14.9497
rtibia 50.4615
rfoot -18.0387 -3.78419
rtoes -1.56128
lfemur 0.625554 2.46718 -17.2571
ltibia 81.4007
lfoot -13.5427 13.1043
ltoes 3.77278
741
root -13.5166 15.196 -8.84079 -1083.84 -55.7624 0.254595
lowerback 8.50808 -0.674323 -0.240577
upperback 3.45655 -1.01081 -1.70474
thorax -1.22008 -0.524276 -1.5267
lowerneck -17.174 14.4104 7.9611
upperneck 29.9469 24.4067 -16.9716
head 17.3381 8.82733 -3.41482
rclavicle -4.23411e-014 6.36111e-015
rhumerus -53.834 30.9758 -83.7597
rradius 69.9183
rwrist -7.03807
rhand -7.84339 -23.1449
rfingers 7.12502
rthumb 18.0595 -52.3265
lclavicle -4.23411e-014 6.36111e-015
lhumerus -40.2659 -20.6012 92.723
lradius 59.5474
lwrist 15.0079
lhand -25.927 -2.22464
lfingers 7.12502
lthumb 0.616229 27.7542
rfemur -22.9889 -15.7152 14.2934
rtibia 51.8898
rfoot -20.4353 -4.45567
rtoes -3.57941
lfemur -4.45008 2.44426 -17.7714
ltibia 85.5404
lfoot -14.2568 11.8676
ltoes 0.197774
742
root -14.0112 15.1755 -8.65553 -1083.54 -54.1167 -0.279932
lowerback 8.42127 -0.325916 -0.0924049
upperback 3.70326 -0.53051 -1.52628
thorax -0.904855 -0.283482 -1.47252
lowerneck -16.728 14.4263 8.60558
upperneck 29.333 24.5198 -17.9624
head 17.2747 8.91288 -3.90706
rclavicle -5.01931e-015 3.1408e-014
rhumerus -52.1082 30.9168 -83.0381
rradius 69.0149
rwrist -4.57065
rhand -10.4104 -21.5586
rfingers 7.12502
rthumb 15.5884 -50.9504
lclavicle -5.01931e-015 3.1408e-014
lhumerus -41.9696 -19.5033 92.2391
lradius 58.8281
lwrist 14.2151
lhand -25.4159 -1.06761
lfingers 7.12502
lthumb 1.10987 28.9092
rfemur -20.4465 -16.4832 14.3205
rtibia 52.4683
rfoot -22.1118 -5.6352
rtoes -8.49538
lfemur -9.7801 2.3312 -18.0517
ltibia 88.1868
lfoot -14.2566 11.2792
ltoes -1.60391
743
root -14.5075 15.1832 -8.46789 -1083.17 -52.3554 -0.945804
lowerback 8.33046 -0.0549318 -0.0985374
upperback 3.89937 -0.164149 -1.26614
thorax -0.642466 -0.101284 -1.23411
lowerneck -16.4584 14.5485 8.43806
upperneck 28.9448 24.6521 -17.8312
head 16.9699 9.03076 -3.77991
rclavicle 1.38652e-014 -5.96354e-015
rhumerus -50.994 31.3283 -82.5827
rradius 69.5257
rwrist -4.76873
rhand -10.4817 -21.0562
rfingers 7.12502
rthumb 15.5197 -50.4534
lclavicle 1.38652e-014 -5.96354e-015
lhumerus -45.1631 -19.1331 91.7921
lradius 60.3062
lwrist 14.9731
lhand -24.7614 -4.10605
lfingers 7.12502
lthumb 1.74203 25.8666
rfemur -17.4035 -17.5581 14.5079
rtibia 52.3116
rfoot -23.9125 -6.48185
rtoes -8.51524
lfemur -14.5629 2.07078 -18.5206
ltibia 88.9977
lfoot -16.1961 10.9273
ltoes -4.3134
744
root -15.0047 15.2312 -8.27385 -1082.53 -50.5425 -1.71555
lowerback 8.24684 0.719963 -0.0917395
upperback 3.69701 0.869521 -1.32612
thorax -0.781863 0.417714 -1.3899
lowerneck -16.3635 14.241 9.28335
upperneck 29.4466 23.8572 -17.1826
head 17.0345 8.87588 -3.85842
rclavicle 3.37934e-015 -1.98785e-014
rhumerus -51.4346 30.2128 -83.065
rradius 70.5056
rwrist -5.73563
rhand -10.3231 -20.2584
rfingers 7.12502
rthumb 15.6725 -49.6437
lclavicle 3.37934e-015 -1.98785e-014
lhumerus -48.8377 -21.4754 91.6265
lradius 62.4267
lwrist 16.2945
lhand -23.0827 -4.81008
lfingers 7.12502
lthumb 3.36319 25.1431
rfemur -14.3294 -18.231 15.0123
rtibia 51.5379
rfoot -24.9272 -7.57693
rtoes -8.0849
lfemur -19.1225 1.5763 -19.2421
ltibia 88.2567
lfoot -16.8451 10.7237
ltoes -1.1268
745
root -15.5028 15.3018 -8.06157 -1081.21 -49.1906 -3.44003
lowerback 7.5171 1.39913 0.485007
upperback 3.78342 1.82603 -1.00213
thorax -0.259661 0.904707 -1.44045
lowerneck -16.6807 14.157 8.97455
upperneck 29.8144 23.56 -16.1992
head 16.9677 8.81527 -3.45446
rclavicle 1.19271e-015 -1.19271e-014
rhumerus -51.6339 30.1615 -83.367
rradius 71.5844
rwrist -7.43976
rhand -10.0071 -19.8692
rfingers 7.12502
rthumb 15.9768 -49.2303
lclavicle 1.19271e-015 -1.19271e-014
lhumerus -51.903 -23.2444 91.4026
lradius 64.1759
lwrist 17.2612
lhand -20.843 -6.97625
lfingers 7.12502
lthumb 5.52592 22.9317
rfemur -11.2937 -17.4242 16.6312
rtibia 50.5237
rfoot -24.9829 -9.58346
rtoes -8.46604
lfemur -22.9381 1.13396 -19.5099
ltibia 85.8863
lfoot -17.897 10.5645
ltoes -1.06524
746
root -16.0038 15.4013 -7.83822 -1079.78 -47.6831 -4.91291
lowerback 6.42174 2.11469 0.703763
upperback 3.65401 2.80046 -0.816149
thorax 0.241687 1.39978 -1.40074
lowerneck -16.7995 14.0985 9.15889
upperneck 30.2247 23.1389 -15.1527
head 16.9256 8.7812 -3.14275
rclavicle 9.75039e-014 -2.06736e-014
rhumerus -52.3904 29.6224 -84.1783
rradius 72.643
rwrist -9.7392
rhand -9.46917 -19.738
rfingers 7.12502
rthumb 16.4948 -49.0568
lclavicle 9.75039e-014 -2.06736e-014
lhumerus -54.903 -25.3586 90.9542
lradius 65.7283
lwrist 18.2955
lhand -18.2679 -8.06704
lfingers 7.12502
lthumb 8.01182 21.7611
rfemur -8.70749 -16.7864 18.3731
rtibia 49.4255
rfoot -23.6354 -11.7706
rtoes -10.2485
lfemur -26.3731 1.43535 -19.7197
ltibia 81.935
lfoot -18.9438 8.85741
ltoes -0.573442
747
root -16.4841 15.5443 -7.62111 -1076.69 -46.964 -7.94916
lowerback 5.57393 2.97129 1.86478
upperback 3.06379 4.00835 -0.303438
thorax 0.184041 2.01652 -1.5608
lowerneck -16.8361 14.1957 9.07172
upperneck 30.3339 23.0588 -14.3267
head 16.7819 8.85083 -2.79482
rclavicle 6.70898e-014 -8.74653e-015
rhumerus -53.3156 29.1472 -85.0053
rradius 73.6915
rwrist -12.4979
rhand -8.29441 -19.9214
rfingers 7.12502
rthumb 17.6255 -49.1425
lclavicle 6.70898e-014 -8.74653e-015
lhumerus -57.8369 -26.9948 90.5893
lradius 67.1824
lwrist 19.7287
lhand -16.0165 -7.71354
lfingers 7.12502
lthumb 10.1842 22.02
rfemur -7.58451 -14.9138 21.7274
rtibia 48.6179
rfoot -21.2575 -13.4043
rtoes -8.89607
lfemur -29.8068 2.60867 -18.8078
ltibia 76.1853
lfoot -18.9326 6.85741
ltoes -5.69442
